<?xml version="1.0" encoding="utf-8"?>
<!-- Generator: Adobe Illustrator 16.0.0, SVG Export Plug-In . SVG Version: 6.00 Build 0)  -->
<!DOCTYPE svg PUBLIC "-//W3C//DTD SVG 1.1//EN" "http://www.w3.org/Graphics/SVG/1.1/DTD/svg11.dtd">
<svg version="1.1"
	 id="svg3090" xmlns:svg="http://www.w3.org/2000/svg" xmlns:inkscape="http://www.inkscape.org/namespaces/inkscape" xmlns:sodipodi="http://sodipodi.sourceforge.net/DTD/sodipodi-0.dtd" xmlns:cc="http://creativecommons.org/ns#" xmlns:rdf="http://www.w3.org/1999/02/22-rdf-syntax-ns#" xmlns:dc="http://purl.org/dc/elements/1.1/" inkscape:version="0.48.0 r9654" sodipodi:docname="Hellenic_Army_Seal.svg"
	 xmlns="http://www.w3.org/2000/svg" xmlns:xlink="http://www.w3.org/1999/xlink" x="0px" y="0px" width="223.393px"
	 height="260.598px" viewBox="0 0 223.393 260.598" enable-background="new 0 0 223.393 260.598" xml:space="preserve">
<sodipodi:namedview  id="base" fit-margin-top="0" pagecolor="#ffffff" inkscape:cy="-42.129614" borderopacity="1.0" showgrid="false" inkscape:cx="257.53284" bordercolor="#666666" fit-margin-left="0" inkscape:zoom="1" inkscape:window-height="967" fit-margin-right="0" inkscape:window-y="0" fit-margin-bottom="0" inkscape:window-width="647" inkscape:pageshadow="2" inkscape:window-x="0" inkscape:document-units="px" inkscape:current-layer="layer1" inkscape:pageopacity="0.0" inkscape:window-maximized="0">
	</sodipodi:namedview>
<g id="layer1" transform="translate(-130.3035,-494.92093)" inkscape:label="Layer 1" inkscape:groupmode="layer">
	<g id="g3396">
		<g id="g7" transform="translate(130.3035,494.92093)">
			<path id="path9" inkscape:connector-curvature="0" fill="#FDE720" d="M111.696,260.598C45.925,231.936,0,174.14,0,97.222
				l0.565-72.92c0,0,47.321-23.598,111.13-24.302l0,0c63.812,0.704,111.13,24.302,111.13,24.302l0.567,72.92
				C223.394,174.14,177.47,231.936,111.696,260.598L111.696,260.598L111.696,260.598z"/>
			<path id="path11" inkscape:connector-curvature="0" fill="#010101" d="M111.696,251.124
				C46.596,221.947,9.055,164.534,9.055,96.987l0.526-66.399C23.054,24.85,62.508,10.035,111.696,9.474
				c49.188,0.562,88.644,15.376,102.116,21.114l0.526,66.399C214.339,164.534,176.796,221.947,111.696,251.124L111.696,251.124
				L111.696,251.124z"/>
			<path id="path13" inkscape:connector-curvature="0" fill="#FDE720" d="M111.698,244.363
				c-61.596-28.1-97.316-83.924-97.316-148.689l0.506-41.491c16.19-6.559,52.353-18.844,96.873-19.354
				c44.396,0.511,80.555,12.801,96.749,19.357l0.503,41.487C209.013,160.444,173.291,216.268,111.698,244.363L111.698,244.363
				L111.698,244.363z"/>
			<polygon id="polygon15" fill="#010101" points="137.513,223.972 152.187,211.176 71.305,211.176 85.157,223.972 			"/>
		</g>
		<g id="g33" transform="translate(131.0175,494.61693)">
			<g id="g35">
				<polygon id="polygon37" fill="#FDE720" points="25.057,32.506 25.186,32.252 25.44,32.38 26.153,32.738 26.405,32.865 
					26.279,33.117 24.397,36.89 28.285,35.593 28.553,35.503 28.643,35.772 28.896,36.53 28.985,36.798 28.716,36.888 
					24.925,38.152 28.82,40.142 29.075,40.272 28.944,40.525 28.588,41.217 28.458,41.467 28.458,41.467 28.207,41.339 
					22.437,38.393 22.186,38.265 22.311,38.014 				"/>
				<path id="path39" inkscape:connector-curvature="0" fill="#FDE720" d="M24.193,38.098l4.497,2.297l-0.356,0.692l-5.771-2.947
					l2.749-5.509l0.712,0.358l-2.187,4.384l4.536-1.513l0.252,0.757L24.193,38.098z"/>
				<polygon id="polygon41" fill="#FDE720" points="31.729,42.952 31.462,42.901 31.505,42.63 33.585,29.351 33.697,28.633 
					34.101,29.239 39.792,37.796 39.94,38.022 39.722,38.181 39.078,38.654 38.837,38.832 38.672,38.581 34.435,32.052 
					32.831,42.867 32.786,43.162 32.786,43.162 32.494,43.103 				"/>
				<path id="path43" inkscape:connector-curvature="0" fill="#FDE720" d="M38.911,38.427l-4.647-7.16l-1.715,11.559l-0.765-0.15
					l2.081-13.278l5.688,8.557L38.911,38.427z"/>
				<polygon id="polygon45" fill="#FDE720" points="42.119,27.433 42.262,27.188 42.507,27.331 43.197,27.735 43.441,27.877 
					43.298,28.123 41.185,31.769 45.145,30.718 45.42,30.644 45.492,30.917 45.696,31.689 45.77,31.964 45.496,32.036 
					41.631,33.062 45.396,35.29 45.641,35.437 45.494,35.68 45.094,36.349 44.949,36.592 44.949,36.592 44.707,36.449 
					39.132,33.148 38.892,33.003 39.032,32.76 				"/>
				<path id="path47" inkscape:connector-curvature="0" fill="#FDE720" d="M40.906,32.961l4.346,2.573l-0.399,0.668l-5.574-3.302
					l3.087-5.326l0.688,0.403l-2.457,4.238l4.621-1.228l0.205,0.771L40.906,32.961z"/>
				<polygon id="polygon49" fill="#FDE720" points="46.977,28.011 49.808,31.714 52.025,24.642 52.109,24.372 52.379,24.456 
					53.141,24.692 53.412,24.778 53.329,25.048 49.183,38.374 49.101,38.633 49.101,38.633 48.837,38.563 48.047,38.354 
					47.768,38.278 47.849,38 49.26,33.213 45.872,28.804 45.688,28.564 45.938,28.395 46.593,27.948 46.813,27.797 				"/>
				<path id="path51" inkscape:connector-curvature="0" fill="#FDE720" d="M49.913,32.319l2.382-7.592l0.762,0.238L48.911,38.29
					l-0.791-0.211l1.453-4.925l-3.477-4.522l0.656-0.449L49.913,32.319L49.913,32.319z"/>
				<path id="path53" inkscape:connector-curvature="0" fill="#FDE720" d="M60.232,33.244l-0.219-0.168l-5.076-3.873l-0.223-0.17
					l0.168-0.225l4.239-5.638l0.189-0.254l0.231,0.218l4.845,4.556l0.192,0.18l-0.166,0.205l-4.009,4.955L60.232,33.244
					L60.232,33.244z M57.733,29.618l2.259,1.725l2.342-2.895L57.733,29.618L57.733,29.618z M59.474,24.942l-2.557,3.428l4.906-1.195
					L59.474,24.942L59.474,24.942z"/>
				<path id="path55" inkscape:connector-curvature="0" fill="#FDE720" d="M59.35,23.338l4.846,4.558l-4.01,4.954l-5.075-3.873
					L59.35,23.338z M62.396,27.326l-2.958-2.809l-3.221,4.314L62.396,27.326z M57.098,29.49l2.94,2.244l3.052-3.77L57.098,29.49z"/>
				<polygon id="polygon57" fill="#FDE720" points="68.784,21.722 68.95,21.488 69.181,21.656 69.83,22.125 70.059,22.289 
					69.896,22.518 67.447,25.948 71.488,25.273 71.769,25.228 71.815,25.506 71.946,26.294 71.991,26.575 71.713,26.622 
					67.771,27.281 71.308,29.852 71.539,30.02 71.371,30.249 70.911,30.877 70.743,31.104 70.743,31.104 70.516,30.939 
					65.275,27.127 65.048,26.962 65.21,26.734 				"/>
				<path id="path59" inkscape:connector-curvature="0" fill="#FDE720" d="M67.057,27.111l4.085,2.971l-0.46,0.629l-5.239-3.812
					l3.574-5.013l0.647,0.467l-2.844,3.988l4.716-0.787l0.131,0.787L67.057,27.111z"/>
				<path id="path61" inkscape:connector-curvature="0" fill="#FDE720" d="M75.041,33.041l-0.281-0.002l-0.797-0.006l-0.285-0.002
					l0.004-0.285l0.14-12.393l0.006-0.547l0.441,0.322l5.985,4.342l0.305,0.221l-0.297,0.232l-4.574,3.561l-0.256,0.199
					l-0.162-0.279l-0.159-0.271l-0.068,4.629L75.041,33.041L75.041,33.041z M75.197,22.466l-0.072,4.818l3.17-2.553L75.197,22.466
					L75.197,22.466z"/>
				<path id="path63" inkscape:connector-curvature="0" fill="#FDE720" d="M73.965,32.75l0.14-12.394l5.985,4.342l-4.574,3.563
					l-0.368-0.629l3.614-2.911l-3.839-2.809l-0.16,10.843L73.965,32.75z"/>
				<path id="path65" inkscape:connector-curvature="0" fill="#FDE720" d="M86.19,29.231l-0.202-0.188l-4.683-4.343l-0.208-0.189
					l0.191-0.208l4.758-5.207l0.213-0.234l0.209,0.238l4.386,5l0.173,0.197l-0.184,0.188l-4.462,4.549L86.19,29.231L86.19,29.231z
					 M83.006,24.446l3.112,2.883l3.049-3.083l-2.94-3.353L83.006,24.446L83.006,24.446z"/>
				<path id="path67" inkscape:connector-curvature="0" fill="#FDE720" d="M86.255,19.287l4.388,5l-4.463,4.549l-4.683-4.341
					L86.255,19.287z M82.608,24.462l3.52,3.26l3.429-3.466l-3.324-3.788L82.608,24.462z"/>
				<polygon id="polygon69" fill="#FDE720" points="98.15,18.606 98.929,18.631 99.218,18.64 99.204,18.929 98.75,28.155 
					98.696,29.225 98.214,28.268 94.873,21.654 92.977,31.108 92.919,31.402 92.919,31.402 92.629,31.328 91.874,31.135 
					91.613,31.067 91.667,30.804 94.192,18.321 94.351,17.539 94.72,18.245 97.63,23.791 97.858,18.878 97.871,18.599 				"/>
				<path id="path71" inkscape:connector-curvature="0" fill="#FDE720" d="M91.944,30.859l2.525-12.483l3.397,6.473l0.273-5.958
					l0.779,0.023l-0.455,9.228l-3.71-7.345L92.7,31.052L91.944,30.859z"/>
				<polygon id="polygon73" fill="#FDE720" points="110.363,17.391 116.276,18.023 116.56,18.054 116.527,18.338 116.431,19.171 
					116.399,19.441 116.128,19.42 113.942,19.264 113.069,30.155 113.049,30.423 113.049,30.423 112.779,30.417 111.98,30.396 
					111.683,30.388 111.707,30.09 112.562,19.188 110.256,18.924 109.994,18.894 110.005,18.63 110.048,17.661 110.063,17.358 				
					"/>
				<path id="path75" inkscape:connector-curvature="0" fill="#FDE720" d="M110.288,18.643l0.045-0.97l5.913,0.631l-0.098,0.833
					l-2.467-0.177l-0.895,11.172l-0.799-0.021l0.875-11.175L110.288,18.643z"/>
				<path id="path77" inkscape:connector-curvature="0" fill="#FDE720" d="M121.813,28.208l-0.171-0.218l-3.922-5.039l-0.171-0.22
					l0.221-0.175l5.537-4.371l0.247-0.196l0.169,0.269l3.522,5.643l0.138,0.223l-0.212,0.156l-5.138,3.769L121.813,28.208
					L121.813,28.208L121.813,28.208z M119.442,22.972l2.604,3.349l3.505-2.551l-2.356-3.782L119.442,22.972L119.442,22.972z"/>
				<path id="path79" inkscape:connector-curvature="0" fill="#FDE720" d="M123.481,18.406l3.523,5.644l-5.14,3.768l-3.921-5.039
					L123.481,18.406z M119.046,22.924l2.946,3.786l3.941-2.866l-2.668-4.275L119.046,22.924z"/>
				<polygon id="polygon81" fill="#FDE720" points="142.595,20.36 142.822,20.187 142.993,20.414 143.479,21.05 143.65,21.273 
					143.428,21.446 140.086,24.018 144.15,24.548 144.431,24.585 144.394,24.866 144.291,25.657 144.253,25.938 143.973,25.901 
					140.01,25.382 142.646,28.875 142.818,29.102 142.589,29.273 141.965,29.74 141.74,29.909 141.74,29.909 141.568,29.684 
					137.661,24.513 137.492,24.288 137.715,24.117 				"/>
				<path id="path83" inkscape:connector-curvature="0" fill="#FDE720" d="M139.374,25.015l3.045,4.031l-0.624,0.467l-3.905-5.17
					l4.879-3.756l0.484,0.634l-3.883,2.989l4.742,0.618l-0.104,0.791L139.374,25.015z"/>
				<polygon id="polygon85" fill="#FDE720" points="146.872,22.738 148.08,27.239 152.82,21.542 153,21.326 153.218,21.506 
					153.832,22.015 154.051,22.196 153.871,22.414 144.968,33.161 144.795,33.372 144.795,33.372 144.577,33.206 143.926,32.71 
					143.694,32.534 143.877,32.307 147.005,28.417 145.549,23.052 145.471,22.763 145.762,22.701 146.539,22.536 146.804,22.48 				
					"/>
				<path id="path87" inkscape:connector-curvature="0" fill="#FDE720" d="M147.947,27.84l5.091-6.116l0.614,0.509l-8.903,10.747
					l-0.65-0.496l3.217-4.002l-1.493-5.505l0.776-0.166L147.947,27.84z"/>
				<polygon id="polygon89" fill="#FDE720" points="163.988,27.196 163.75,27.35 158.126,30.958 156.712,35.075 156.619,35.346 
					156.619,35.346 156.348,35.25 155.595,34.984 155.329,34.891 155.423,34.624 156.828,30.587 154.155,25.124 154.031,24.87 
					154.286,24.746 154.988,24.404 155.242,24.28 155.366,24.534 157.435,28.8 159.629,22.804 159.724,22.547 159.982,22.632 
					160.742,22.875 161.024,22.965 160.923,23.243 158.856,28.888 163.014,26.205 163.251,26.052 163.404,26.29 163.835,26.958 				
					"/>
				<path id="path91" inkscape:connector-curvature="0" fill="#FDE720" d="M158.3,29.583l4.867-3.143l0.43,0.669l-5.709,3.663
					l-1.444,4.209l-0.754-0.266l1.444-4.148L154.411,25l0.7-0.342l2.359,4.869l2.424-6.627l0.761,0.245L158.3,29.583L158.3,29.583z"
					/>
				<polygon id="polygon93" fill="#FDE720" points="166.129,26.288 167.026,30.859 172.145,25.5 172.34,25.295 172.545,25.49 
					173.123,26.041 173.328,26.236 173.134,26.441 163.516,36.554 163.329,36.753 163.329,36.753 163.124,36.573 162.511,36.034 
					162.291,35.841 162.488,35.628 165.872,31.962 164.786,26.51 164.729,26.215 165.024,26.174 165.812,26.062 166.077,26.022 				
					"/>
				<path id="path95" inkscape:connector-curvature="0" fill="#FDE720" d="M166.854,31.45l5.497-5.754l0.577,0.55l-9.616,10.114
					l-0.614-0.539l3.481-3.772l-1.114-5.596l0.786-0.111L166.854,31.45L166.854,31.45z"/>
				<polygon id="polygon97" fill="#FDE720" points="177.467,37.653 177.382,37.381 176.416,34.241 171.668,38.551 171.463,38.737 
					171.463,38.737 171.271,38.536 170.734,37.97 170.533,37.758 170.749,37.565 176.005,32.822 174.25,27.369 174.163,27.097 
					174.435,27.012 175.186,26.778 175.455,26.693 175.54,26.96 177.092,31.808 179.478,29.646 179.685,29.458 179.875,29.663 
					180.406,30.231 180.604,30.441 180.39,30.634 177.533,33.227 178.668,36.983 178.749,37.252 178.481,37.335 177.739,37.568 				
					"/>
				<path id="path99" inkscape:connector-curvature="0" fill="#FDE720" d="M176.33,32.91l-1.811-5.627l0.75-0.234l1.688,5.267
					l2.709-2.459l0.532,0.569l-2.988,2.712l1.187,3.929l-0.742,0.233l-1.099-3.568l-5.08,4.61l-0.536-0.566L176.33,32.91
					L176.33,32.91z"/>
				<path id="path101" inkscape:connector-curvature="0" fill="#FDE720" d="M183.69,39.079l-0.112-0.251l-2.667-5.8l-0.118-0.255
					l0.256-0.121l6.385-2.994l0.287-0.133l0.103,0.299l2.145,6.298l0.086,0.249l-0.243,0.104l-5.863,2.496L183.69,39.079
					L183.69,39.079z M182.58,33.439l1.774,3.854l3.995-1.684l-1.437-4.221L182.58,33.439L182.58,33.439L182.58,33.439z"/>
				<path id="path103" inkscape:connector-curvature="0" fill="#FDE720" d="M187.554,29.916l2.146,6.298l-5.863,2.497l-2.668-5.801
					L187.554,29.916z M182.206,33.304l2.006,4.356l4.492-1.892l-1.624-4.771L182.206,33.304L182.206,33.304z"/>
				<polygon id="polygon105" fill="#FDE720" points="195.771,32.18 196.349,38.415 198.43,33.962 198.548,33.71 198.804,33.825 
					199.515,34.143 199.779,34.259 199.654,34.521 195.717,42.879 195.261,43.848 195.261,43.848 195.178,42.779 194.608,35.39 
					189.255,43.409 189.091,43.656 188.85,43.478 188.224,43.01 188.01,42.85 188.159,42.625 195.253,32.049 195.695,31.388 				"/>
				<path id="path107" inkscape:connector-curvature="0" fill="#FDE720" d="M188.394,42.784l7.096-10.577l0.673,7.279l2.524-5.404
					l0.711,0.319l-3.938,8.357l-0.631-8.205l-5.811,8.696L188.394,42.784z"/>
			</g>
		</g>
		<path id="path17" inkscape:connector-curvature="0" fill="#010101" d="M329.587,571.339
			c-10.009,10.009-26.271,17.514-26.271,17.514c22.047-13.291,28.457-37.216,28.457-37.216s-26.265,34.494-53.812,41.303
			c-5.188,1.281-16.375,6.358-16.375,10.449c0,2.695,1.803,5.396,3.961,4.635c8.366-2.948,5.243,4.909-1.949,4.909
			c-7.974,0-11.57-12.508-11.57-13.76c0,0-1.25-8.444,1.563-11.26c0,0,0.938,3.648,4.065,3.648c0,0-0.481-7.487,3.909-11.623
			c0,0-0.415,4.743,1.721,5.159c0,0,0-8.757,7.192-11.57c7.193-2.814,7.193-0.313,7.193-0.313s3.438-0.624,5.94-3.127
			c1.533-1.534,4.359-1.123,5.004,0c0.658,1.151,8.471,0.516,10.633,6.568c0,0,1.25-14.074-12.821-14.074
			c0,0-4.691-6.254-13.447-6.254c-8.758,0-14.385,10.32-19.076,10.32c0,0,1.563,2.188,6.566,0c0,0-5.318,7.817-14.388,6.254
			c0,0,4.959,3.18,7.931,1.94c0,0-5.612,4.374-9.984,5.117c0,0,3.299,1.567,6.767-0.826c0,0-4.341,7.181-8.797,9.904
			c-4.455-2.725-8.796-9.904-8.796-9.904c3.468,2.395,6.767,0.826,6.767,0.826c-4.372-0.743-9.985-5.117-9.985-5.117
			c2.972,1.238,7.93-1.94,7.93-1.94c-9.067,1.563-14.386-6.254-14.386-6.254c5.003,2.188,6.566,0,6.566,0
			c-4.692,0-10.319-10.32-19.076-10.32c-8.756,0-13.448,6.254-13.448,6.254c-14.072,0-12.821,14.074-12.821,14.074
			c2.163-6.055,9.975-5.417,10.634-6.568c0.644-1.123,3.471-1.534,5.004,0c2.501,2.503,5.94,3.127,5.94,3.127s0-2.501,7.194,0.313
			c7.192,2.813,7.192,11.57,7.192,11.57c2.135-0.416,1.721-5.159,1.721-5.159c4.391,4.136,3.909,11.623,3.909,11.623
			c3.127,0,4.065-3.648,4.065-3.648c2.813,2.814,1.563,11.26,1.563,11.26c0,1.252-3.598,13.76-11.57,13.76
			c-7.194,0-10.317-7.857-1.949-4.909c2.158,0.761,3.96-1.938,3.96-4.635c0-4.091-11.188-9.168-16.375-10.449
			c-27.546-6.81-53.813-41.304-53.813-41.304s6.41,23.925,28.458,37.216c0,0-16.262-7.505-26.271-17.514
			c0,0,8.132,15.014,30.336,33.776c0,0-18.296-10.791-24.393-16.889c0,0,16.026,22.967,24.874,28.666
			c-4.87-2.529-17-8.907-18.619-10.526c0,0,18.138,20.641,32.524,27.207c0,0-17.357-5.785-21.267-9.694
			c0,0,22.785,24.079,34.993,25.722c0,0-4.248,6.18-3.14,11.051c0,0,1.328-5.754,5.754-3.764c4.426,1.991-4.648,5.534-4.648,5.534
			s3.434,2.123,5.967,0.525c-2.191,1.896-7.068,5.891-9.729,5.891c-3.61,0,1.599,2.455,5.571,1.925l-5.067,5.065
			c-1.055-1.186-2.455-2.098-4.247-2.129c-0.417,0-0.853,0.055-1.299,0.166c-2.824,0.66-3.837,2.355-3.801,3.904
			c0.016,1.864,1.2,3.487,1.2,3.487l0.696,0.117l0.117-0.697c0,0-0.25-0.35-0.508-0.903c-0.258-0.553-0.509-1.295-0.507-2.004
			c0.028-0.927,0.358-1.832,1.833-2.504c-0.292,0.6-0.571,1.338-0.586,2.024c-0.002,0.371,0.095,0.781,0.402,1.088
			c0.307,0.308,1.265,0.441,1.265,0.441s0.007,0,0.011,0c0.274,0,0.499-0.498,0.499-0.498l-0.499-0.502c0,0-0.604-0.121-0.679-0.529
			c-0.009-0.428,0.254-1.135,0.536-1.688c0.177-0.354,0.344-0.636,0.449-0.806c0.303-0.063,0.594-0.1,0.869-0.1
			c1.45-0.031,2.676,0.826,3.622,1.945c-0.006,0.135,0.039,0.271,0.143,0.375c0.071,0.071,0.16,0.106,0.253,0.127
			c0.81,1.112,1.362,2.381,1.604,3.293c0.045,0.166,0.069,0.346,0.069,0.528c0.002,0.527-0.199,1.089-0.516,1.49
			c-0.319,0.404-0.721,0.633-1.139,0.631c-0.57,0.009-2.285-2.116-2.285-2.116l-0.674-0.216l-0.214,0.672
			c0,0,2.046,2.654,3.173,2.662c1.609-0.043,2.641-1.614,2.653-3.123c0-0.266-0.034-0.532-0.105-0.795
			c-0.274-0.967-0.834-2.332-1.708-3.561l5.676-5.676c0.144,0.922,0.573,3.067,1.601,4.096c1.328,1.328,0.664-6.049,2.547-6.049
			c0,0,0.993,0.297,0.993,4.059c0,3.763,4.204-2.875,4.204-6.418c0-3.541,1.105-5.754,4.426-5.754s0.332,5.865-0.664,6.859
			c-0.806,0.807,3.749-2.013,5.516-4.521c-1.197,4.15-4.256,14.18-11.268,23.996c0,0,11.176-6.529,13.056-8.41
			c1.88-1.879-7.082,14.164-12.392,19.476c0,0,5.09,0,14.384-9.295c1.326,7.524,5.722,9.831,5.722,9.831s4.396-2.307,5.723-9.831
			c9.294,9.295,14.385,9.295,14.385,9.295c-5.311-5.312-14.273-21.354-12.393-19.476c1.88,1.881,13.056,8.41,13.056,8.41
			c-7.013-9.816-10.07-19.846-11.27-23.996c1.769,2.51,6.322,5.328,5.518,4.521c-0.996-0.994-3.983-6.859-0.664-6.859
			s4.427,2.213,4.427,5.754c0,3.543,4.203,10.18,4.203,6.418s0.992-4.059,0.992-4.059c1.885,0,1.221,7.377,2.548,6.049
			c1.027-1.027,1.458-3.174,1.601-4.096l5.677,5.676c-0.874,1.229-1.434,2.594-1.708,3.561c-0.071,0.263-0.105,0.529-0.105,0.795
			c0.013,1.509,1.044,3.08,2.653,3.123c1.126-0.008,3.172-2.662,3.172-2.662l-0.214-0.672l-0.674,0.216c0,0-1.716,2.125-2.284,2.116
			c-0.418,0.002-0.819-0.227-1.14-0.631c-0.315-0.401-0.518-0.963-0.516-1.49c0-0.184,0.024-0.362,0.07-0.528
			c0.24-0.912,0.795-2.181,1.604-3.293c0.094-0.021,0.183-0.056,0.254-0.127c0.104-0.104,0.147-0.24,0.143-0.375
			c0.946-1.119,2.171-1.978,3.622-1.945c0.274,0,0.565,0.037,0.869,0.1c0.104,0.17,0.272,0.451,0.448,0.806
			c0.282,0.553,0.545,1.26,0.537,1.688c-0.076,0.408-0.68,0.529-0.68,0.529l-0.498,0.502c0,0,0.225,0.498,0.498,0.498
			c0.004,0,0.012,0,0.012,0s0.957-0.135,1.265-0.441c0.307-0.306,0.403-0.717,0.401-1.088c-0.016-0.688-0.295-1.426-0.586-2.024
			c1.475,0.672,1.805,1.577,1.833,2.504c0.002,0.709-0.249,1.45-0.507,2.004c-0.258,0.555-0.508,0.903-0.508,0.903l0.117,0.697
			l0.696-0.117c0,0,1.185-1.623,1.199-3.487c0.036-1.549-0.977-3.244-3.801-3.904c-0.447-0.111-0.882-0.166-1.299-0.166
			c-1.793,0.031-3.193,0.943-4.248,2.129l-5.066-5.065c3.974,0.53,9.183-1.925,5.571-1.925c-2.661,0-7.538-3.993-9.729-5.891
			c2.534,1.598,5.967-0.525,5.967-0.525s-9.073-3.543-4.647-5.534c4.427-1.99,5.754,3.764,5.754,3.764
			c1.108-4.871-3.14-11.051-3.14-11.051c12.208-1.644,34.992-25.722,34.992-25.722c-3.908,3.909-21.267,9.694-21.267,9.694
			c14.387-6.566,32.524-27.207,32.524-27.207c-1.619,1.619-13.749,7.997-18.619,10.526c8.848-5.699,24.874-28.666,24.874-28.666
			c-6.097,6.098-24.394,16.889-24.394,16.889C321.455,586.353,329.587,571.339,329.587,571.339L329.587,571.339z M275.436,563.672
			c1.814,0,3.287,0.684,3.287,1.525s-1.473,1.525-3.287,1.525s-3.287-0.684-3.287-1.525S273.621,563.672,275.436,563.672z
			 M208.563,566.724c-1.815,0-3.287-0.684-3.287-1.525s1.472-1.525,3.287-1.525s3.287,0.684,3.287,1.525
			S210.378,566.724,208.563,566.724z"/>
	</g>
	<g id="g3489" transform="translate(223,164.85775)">
		<path id="path19" inkscape:connector-curvature="0" fill="#FFFFFF" d="M36.444,453.558H2.013l-0.039,25.824
			c0,1.301,0.186,2.266,0.554,2.886c0.541,0.915,1.547,1.368,3.026,1.368h6.582c1.975,0,3.443,0.215,4.409,0.64
			c1.193,0.52,2.066,1.481,2.625,2.892c0.578-1.42,1.451-2.381,2.615-2.892c0.98-0.425,2.46-0.64,4.434-0.64h5.242
			c3.19,0,4.824-0.754,4.897-2.266l0.085-1.988L36.444,453.558L36.444,453.558z"/>
		<g id="g21" transform="translate(-92.615996,330.96867)">
			<g>
				<defs>
					<path id="SVGID_1_" d="M129.099,122.59H94.668l-0.038,25.824c0,1.301,0.188,2.266,0.553,2.886
						c0.542,0.915,1.551,1.368,3.026,1.368h6.581c1.976,0,3.446,0.215,4.413,0.64c1.192,0.52,2.064,1.481,2.623,2.892
						c0.58-1.42,1.453-2.381,2.615-2.892c0.981-0.425,2.457-0.64,4.434-0.64h5.242c3.193,0,4.826-0.754,4.898-2.266l0.084-1.988
						V122.59z"/>
				</defs>
				<clipPath id="SVGID_2_">
					<use xlink:href="#SVGID_1_"  overflow="visible"/>
				</clipPath>
				<path id="path29" inkscape:connector-curvature="0" clip-path="url(#SVGID_2_)" fill="#0055A6" d="M94.63,131.86h11.414v-9.271
					H94.63V131.86z M117.647,122.59v9.271h11.412v-9.271H117.647z M94.63,152.668h11.414v-11.584H94.63V152.668z M117.647,152.668
					h11.412v-11.584h-11.412V152.668z"/>
			</g>
		</g>
		<path id="path31" inkscape:connector-curvature="0" fill="#FFFFFF" d="M39.457,452.221H-1.322c-0.909,0-0.548,2.097-0.552,2.835
			h2.278l-0.039,24.327c0,1.514,0.233,2.649,0.717,3.467c0.815,1.373,2.416,2.125,4.511,2.125h6.58c2.104,0,3.132,0.258,3.632,0.48
			c0.799,0.348,1.414,1.059,1.834,2.119c0.215,0.549,0.849,0.924,1.559,0.93h0.009c0.705,0,1.338-0.367,1.563-0.915
			c0.438-1.075,1.058-1.794,1.831-2.134c0.508-0.22,1.551-0.48,3.657-0.48H31.5c5.55,0,6.479-2.225,6.54-3.557l0.091-2.035v-24.327
			h1.587C39.718,454.315,40.365,452.221,39.457,452.221L39.457,452.221z M35.295,479.305l-0.088,1.988
			c-0.008,0.183-0.917,0.847-3.707,0.847h-5.244c-2.111,0-3.678,0.234-4.785,0.718c-0.672,0.293-1.509,0.824-2.26,1.788
			c-0.75-0.96-1.593-1.493-2.273-1.788c-1.085-0.48-2.648-0.718-4.765-0.718H5.592c-0.491,0-1.677-0.072-2.072-0.736
			c-0.094-0.157-0.32-0.687-0.32-2.021l0.037-24.327h32.059V479.305z"/>
	</g>
</g>
</svg>
